<svg width="668" height="534" viewBox="0 0 668 534" fill="none" xmlns="http://www.w3.org/2000/svg">
<path d="M400.667 0.333252H267.333C141.625 0.333252 78.7716 0.333248 39.7189 39.3856C11.6009 67.5036 3.72826 107.961 1.52393 175.333H666.477C664.273 107.961 656.4 67.5036 628.28 39.3856C589.23 0.333248 526.373 0.333252 400.667 0.333252Z" fill="url(#paint0_linear_36_7)"/>
<path d="M267.333 533.667H400.667C526.373 533.667 589.23 533.667 628.28 494.613C667.333 455.563 667.333 392.707 667.333 267C667.333 252.27 667.333 238.4 667.27 225.333H0.729502C0.666502 238.4 0.666504 252.27 0.666504 267C0.666504 392.707 0.666508 455.563 39.7188 494.613C78.7715 533.667 141.625 533.667 267.333 533.667Z" fill="url(#paint1_linear_36_7)"/>
<path fill-rule="evenodd" clip-rule="evenodd" d="M109 400.333C109 386.527 120.193 375.333 134 375.333H267.333C281.14 375.333 292.333 386.527 292.333 400.333C292.333 414.14 281.14 425.333 267.333 425.333H134C120.193 425.333 109 414.14 109 400.333Z" fill="white"/>
<path fill-rule="evenodd" clip-rule="evenodd" d="M325.667 400.333C325.667 386.527 336.86 375.333 350.667 375.333H400.667C414.473 375.333 425.667 386.527 425.667 400.333C425.667 414.14 414.473 425.333 400.667 425.333H350.667C336.86 425.333 325.667 414.14 325.667 400.333Z" fill="white"/>
<defs>
<linearGradient id="paint0_linear_36_7" x1="1.52393" y1="140.333" x2="660.872" y2="113.961" gradientUnits="userSpaceOnUse">
<stop stop-color="#4158D0"/>
<stop offset="1" stop-color="#C850C0"/>
</linearGradient>
<linearGradient id="paint1_linear_36_7" x1="0.666509" y1="472" x2="662.429" y2="456.939" gradientUnits="userSpaceOnUse">
<stop stop-color="#4158D0"/>
<stop offset="1" stop-color="#C850C0"/>
</linearGradient>
</defs>
</svg>
